<?xml version="1.0" encoding="UTF-8"?>
<svg id="Logo" xmlns="http://www.w3.org/2000/svg" xmlns:xlink="http://www.w3.org/1999/xlink" viewBox="0 0 1014.77 390.36">
  <defs>
    <style>
      .cls-1 {
        fill: url(#linear-gradient-4);
      }

      .cls-2 {
        fill: url(#linear-gradient-3);
      }

      .cls-3 {
        fill: url(#linear-gradient-2);
      }

      .cls-4 {
        fill: url(#linear-gradient);
      }

      .cls-5 {
        fill: #015941;
      }

      .cls-6 {
        fill: #202e4b;
      }

      .cls-7 {
        fill: #9ac93c;
      }
    </style>
    <linearGradient id="linear-gradient" x1="271.81" y1="266.41" x2="456.43" y2="266.41" gradientTransform="translate(-117.23) skewX(6)" gradientUnits="userSpaceOnUse">
      <stop offset="0" stop-color="#015941"/>
      <stop offset="1" stop-color="#9ac93c"/>
    </linearGradient>
    <linearGradient id="linear-gradient-2" x1="233.22" y1="177.02" x2="432.18" y2="177.02" gradientTransform="translate(-117.23) skewX(6)" gradientUnits="userSpaceOnUse">
      <stop offset="0" stop-color="#9ac93c"/>
      <stop offset="1" stop-color="#015941"/>
    </linearGradient>
    <linearGradient id="linear-gradient-3" x1="368.2" y1="187.93" x2="285.05" y2="319.28" gradientTransform="translate(-135.43 21.57) rotate(-1.06) skewX(6.01)" gradientUnits="userSpaceOnUse">
      <stop offset="0" stop-color="#202e4b"/>
      <stop offset="1" stop-color="#4b7494"/>
    </linearGradient>
    <linearGradient id="linear-gradient-4" x1="187.83" y1="157.3" x2="292.94" y2="122.39" gradientTransform="matrix(1,0,0,1,0,0)" xlink:href="#linear-gradient-2"/>
  </defs>
  <g>
    <g>
      <path class="cls-4" d="M368.54,289.21c-.26-10.43-19.16-28.64-50.71-29.22-26.36-.49-42.09,1.03-133.05,27.47,59.72-22.53,119.08-44.84,153.65-43.81,24.91.74,31.23,23.99,30.11,45.56Z"/>
      <path class="cls-3" d="M335.65,196.94c-58.56,36.1-125.85,59.32-165.22,38.24-43.14-23.1-45.72-81.12-17.11-124.35-.74,1.3-25.47,86.88,36.94,113.5,50.52,21.55,145.37-27.38,145.38-27.39Z"/>
      <path class="cls-2" d="M370.26,289.67c-.64,1-1.82.58-1.81-.56.12-18.42-6.91-43.28-39.46-43.48-32.45-.19-92.66,26.64-145.53,42.59-111.87,33.75-105.7-32.39-77.17-102.85,18.87-46.59,41.74-72.53,45.88-75.41.71-.49,1.47.16,1.11.89-.51,1.06-45.04,110.84,30.17,127.71,39.62,8.89,82.1-8.49,127.7-30.51,46.66-22.53,61.27-23.54,69.13-18.17,29,19.85-8.3,97.09-10.02,99.78Z"/>
      <path class="cls-1" d="M221.64,158.15c-2.33-2.87-3.72-6.85-3.73-11.37,0-.32.28-.56.59-.51,5.53,1.02,15.82,2.2,29.16.42,32.65-4.35,46.1-27.18,34.68-41.18-2.66-2.95-3.99-3.91-5.02-4.69-15.45-11.52-40.39-9.4-59.67,6.25-22,17.85-28.29,46.54-14.05,64.09,14.24,17.54,43.61,17.29,65.61-.56,6.98-5.66,12.33-12.42,15.99-19.56.25-.48-.34-.94-.77-.62-24.25,18.05-54.3,18.17-62.78,7.74ZM236.6,119.33c15.16-9.37,21.86-5.49,24.65-1.84,3.52,5.31-3.95,13.17-15.54,16.7-10.07,3.07-18.89,2.14-24.09,1.03-.33-.07-.5-.45-.34-.75,2.9-5.23,7.81-10.5,15.32-15.14Z"/>
    </g>
    <g>
      <g>
        <path class="cls-6" d="M456.05,177.87c-2.66-2.31-4.87-5.88-6.62-10.73l-14.79-40.9c-.16-.64-.24-1.07-.24-1.31,0-.87.28-1.69.83-2.44.56-.75,1.27-1.29,2.15-1.61.4-.16.99-.24,1.79-.24.95,0,1.77.24,2.44.71.68.48,1.17,1.16,1.49,2.03l15.03,41.38c1.27,3.42,2.47,5.8,3.58,7.15,1.11,1.35,2.46,2.03,4.05,2.03s2.96-.65,4.12-1.97c1.15-1.31,2.32-3.63,3.51-6.98l15.03-41.61c.71-1.83,2.03-2.74,3.94-2.74,1.43,0,2.6.42,3.52,1.25.91.83,1.37,1.85,1.37,3.04,0,.24-.08.68-.24,1.31l-15.02,41.14c-1.75,4.85-3.94,8.39-6.56,10.61-2.62,2.23-5.84,3.34-9.66,3.34s-7.05-1.16-9.72-3.46Z"/>
        <path class="cls-6" d="M510.61,173.34c-5.64-5.33-8.47-12.88-8.47-22.66s2.86-16.75,8.59-22.12c5.72-5.37,13.55-8.05,23.49-8.05,6.12,0,11.56.98,16.33,2.92,4.77,1.95,8.48,4.69,11.15,8.23,2.66,3.53,3.99,7.57,3.99,12.1,0,3.34-.93,5.92-2.8,7.75-1.87,1.83-4.43,2.74-7.7,2.74h-44.12c0,6.12,2.07,10.91,6.2,14.37s9.9,5.19,17.29,5.19c4.53,0,8.43-.5,11.69-1.49,3.26-.99,6.32-2.6,9.18-4.83,1.51-1.27,2.74-1.91,3.7-1.91.71,0,1.39.32,2.03.95,1.11.95,1.67,1.95,1.67,2.98,0,.8-.48,1.67-1.43,2.62-3.26,3.1-7.07,5.41-11.45,6.92-4.37,1.51-9.5,2.27-15.38,2.27-10.34,0-18.33-2.67-23.96-7.99ZM552.58,147.23c1.43,0,2.51-.3,3.22-.89.71-.6,1.07-1.69,1.07-3.28,0-2.86-.95-5.45-2.86-7.76-1.91-2.3-4.59-4.09-8.05-5.36s-7.37-1.91-11.74-1.91c-7.08,0-12.66,1.73-16.75,5.19-4.1,3.46-6.14,8.13-6.14,14.01h41.25Z"/>
        <path class="cls-6" d="M582.8,180.08c-.75-.83-1.13-2.01-1.13-3.52v-70.99c0-1.51.38-2.68,1.13-3.52.76-.83,1.81-1.25,3.16-1.25s2.42.41,3.22,1.25c.8.84,1.19,2.01,1.19,3.52v70.99c0,1.43-.38,2.59-1.13,3.46-.76.87-1.85,1.31-3.28,1.31-1.35,0-2.41-.42-3.16-1.25Z"/>
        <path class="cls-6" d="M610.59,203.37c-.76-.84-1.13-2.01-1.13-3.52v-74.57c0-1.51.38-2.68,1.13-3.52.75-.83,1.81-1.25,3.16-1.25,1.43,0,2.52.44,3.28,1.31.75.87,1.13,2.03,1.13,3.46v7.63c6.12-8.27,14.94-12.4,26.47-12.4,9.62,0,17.19,2.67,22.72,7.99,5.52,5.33,8.29,12.64,8.29,21.94,0,6.28-1.27,11.75-3.82,16.39-2.54,4.65-6.18,8.23-10.91,10.73-4.73,2.5-10.28,3.76-16.63,3.76-5.49,0-10.31-.98-14.49-2.92-4.17-1.95-8.01-5.03-11.5-9.24v30.68c0,1.43-.4,2.58-1.19,3.46-.8.87-1.91,1.31-3.34,1.31-1.35,0-2.41-.41-3.16-1.25ZM660.67,167.55c4.1-4.17,6.14-9.95,6.14-17.35s-2.01-12.64-6.02-16.45c-4.01-3.81-9.76-5.72-17.23-5.72-7.87,0-14.07,2.01-18.6,6.02-4.53,4.01-6.8,9.48-6.8,16.39,0,4.61,1.05,8.69,3.16,12.22,2.11,3.54,5.09,6.28,8.94,8.23s8.33,2.92,13.42,2.92c7.23,0,12.89-2.08,16.99-6.26Z"/>
        <path class="cls-6" d="M716.41,179.42c-1.43-1.27-2.15-3.02-2.15-5.25v-65.22h-23.01c-2.31,0-4.12-.54-5.43-1.61-1.31-1.07-1.97-2.56-1.97-4.47s.64-3.52,1.91-4.59,3.1-1.61,5.49-1.61h61.89c2.38,0,4.21.53,5.48,1.61s1.91,2.61,1.91,4.59-.65,3.4-1.97,4.47c-1.31,1.07-3.12,1.61-5.42,1.61h-23.02v65.22c0,2.14-.74,3.87-2.2,5.19-1.47,1.31-3.4,1.97-5.79,1.97s-4.29-.64-5.72-1.91Z"/>
        <path class="cls-6" d="M775.32,175.36c-3.34-3.17-5.01-7.63-5.01-13.35v-47.69c0-5.56,1.61-9.9,4.83-13,3.22-3.1,7.69-4.65,13.42-4.65h37.08c2.38,0,4.21.53,5.49,1.61,1.27,1.07,1.91,2.61,1.91,4.59s-.66,3.4-1.97,4.47c-1.31,1.07-3.12,1.61-5.43,1.61h-34.34c-1.59,0-2.84.52-3.75,1.55-.92,1.04-1.37,2.47-1.37,4.29v16.57h30.41c2.39,0,4.22.53,5.49,1.61s1.91,2.61,1.91,4.59-.65,3.4-1.97,4.47c-1.31,1.07-3.12,1.61-5.43,1.61h-30.41v18.36c0,1.83.46,3.26,1.37,4.29.91,1.03,2.17,1.55,3.75,1.55h36.97c2.38,0,4.21.53,5.49,1.61,1.27,1.07,1.91,2.61,1.91,4.59s-.66,3.4-1.97,4.47c-1.31,1.07-3.12,1.61-5.43,1.61h-38.87c-6.04,0-10.73-1.59-14.07-4.77Z"/>
        <path class="cls-6" d="M861.65,176.2c-6.6-3.42-11.65-8.35-15.15-14.79-3.5-6.44-5.25-14.07-5.25-22.89s1.75-16.48,5.25-22.96c3.5-6.48,8.52-11.45,15.09-14.91,6.56-3.46,14.28-5.19,23.19-5.19,7.39,0,14.23,1.28,20.51,3.82s10.93,5.92,13.95,10.13c.95,1.27,1.43,2.59,1.43,3.94,0,1.99-1.07,3.77-3.22,5.36-.95.72-2.14,1.07-3.58,1.07-1.19,0-2.38-.26-3.58-.77-1.19-.51-2.19-1.25-2.98-2.2-2.71-3.1-5.84-5.34-9.42-6.74-3.58-1.39-7.95-2.08-13.12-2.08-8.67,0-15.42,2.68-20.27,8.05-4.85,5.36-7.27,12.85-7.27,22.48s2.44,16.97,7.33,22.3c4.89,5.33,11.7,7.99,20.45,7.99,10.02,0,18.01-2.94,23.97-8.82,2.47-2.3,4.73-3.46,6.8-3.46,1.43,0,2.74.48,3.94,1.43,1.83,1.59,2.74,3.34,2.74,5.25,0,1.43-.51,2.83-1.55,4.18-3.42,4.37-8.28,7.79-14.61,10.25-6.32,2.47-13.42,3.7-21.29,3.7-8.98,0-16.77-1.71-23.36-5.13Z"/>
      </g>
      <g>
        <path class="cls-5" d="M467.41,262.34c-1.59-1.51-2.39-3.64-2.39-6.36v-22.73c0-2.65.77-4.72,2.3-6.19s3.67-2.22,6.39-2.22h17.67c1.14,0,2.01.26,2.61.77.61.51.91,1.24.91,2.19s-.31,1.62-.94,2.13c-.62.51-1.49.77-2.59.77h-16.36c-.76,0-1.35.25-1.79.74-.44.49-.65,1.17-.65,2.05v7.9h14.49c1.14,0,2.01.26,2.61.77.61.51.91,1.24.91,2.19s-.31,1.62-.94,2.13c-.63.51-1.49.77-2.59.77h-14.49v8.75c0,.87.22,1.55.65,2.05.44.49,1.03.74,1.79.74h17.61c1.14,0,2.01.26,2.61.77.61.51.91,1.24.91,2.19s-.31,1.62-.94,2.13-1.49.77-2.59.77h-18.52c-2.88,0-5.11-.76-6.71-2.27Z"/>
        <path class="cls-5" d="M504.35,262.34c-1.59-1.51-2.39-3.64-2.39-6.36v-22.73c0-2.65.77-4.72,2.3-6.19s3.67-2.22,6.39-2.22h7.95c4.36,0,8.13.8,11.31,2.39s5.62,3.88,7.3,6.88c1.69,2.99,2.53,6.55,2.53,10.68s-.84,7.68-2.53,10.65c-1.69,2.97-4.11,5.25-7.27,6.82-3.16,1.57-6.94,2.36-11.34,2.36h-7.56c-2.88,0-5.11-.76-6.71-2.27ZM518.04,258.76c4.73,0,8.26-1.15,10.57-3.44,2.31-2.29,3.47-5.8,3.47-10.54s-1.16-8.27-3.49-10.6-5.84-3.49-10.54-3.49h-6.08c-.76,0-1.35.25-1.79.74-.44.49-.65,1.17-.65,2.05v22.5c0,.87.22,1.55.65,2.05.44.49,1.03.74,1.79.74h6.08Z"/>
        <path class="cls-5" d="M553.64,263.02c-2.67-1.44-4.74-3.49-6.19-6.17-1.46-2.67-2.19-5.82-2.19-9.46v-19.72c0-1.06.34-1.89,1.02-2.5.68-.61,1.59-.91,2.73-.91s2.05.31,2.76.94c.7.62,1.05,1.45,1.05,2.47v19.89c0,3.75.89,6.63,2.67,8.64,1.78,2.01,4.34,3.01,7.67,3.01s5.84-1.01,7.64-3.04c1.8-2.03,2.7-4.9,2.7-8.61v-19.89c0-1.02.35-1.85,1.05-2.47.7-.62,1.62-.94,2.76-.94s2.05.3,2.73.91c.68.61,1.02,1.44,1.02,2.5v19.72c0,3.52-.75,6.63-2.24,9.32-1.5,2.69-3.61,4.77-6.34,6.25-2.73,1.48-5.89,2.22-9.49,2.22s-6.68-.72-9.35-2.16Z"/>
        <path class="cls-5" d="M600.94,264.27c-.68-.61-1.02-1.44-1.02-2.5v-31.08h-10.97c-1.1,0-1.96-.26-2.59-.77-.62-.51-.94-1.22-.94-2.13s.3-1.68.91-2.19c.61-.51,1.48-.77,2.61-.77h29.49c1.14,0,2.01.26,2.61.77.61.51.91,1.24.91,2.19s-.31,1.62-.94,2.13c-.62.51-1.49.77-2.59.77h-10.97v31.08c0,1.02-.35,1.85-1.05,2.47-.7.62-1.62.94-2.76.94s-2.05-.3-2.73-.91Z"/>
        <path class="cls-5" d="M624.24,264.21c-.68-.61-1.02-1.44-1.02-2.5v-19.89c0-5.49,1.57-9.79,4.72-12.9,3.14-3.11,7.52-4.66,13.13-4.66,3.67,0,6.86.7,9.55,2.1,2.69,1.4,4.74,3.43,6.17,6.08,1.42,2.65,2.13,5.78,2.13,9.38v19.89c0,1.06-.34,1.89-1.02,2.5-.68.61-1.59.91-2.73.91s-2.06-.31-2.76-.94c-.7-.62-1.05-1.45-1.05-2.47v-9.26h-20.57v9.26c0,1.02-.35,1.85-1.05,2.47-.7.62-1.62.94-2.76.94s-2.05-.3-2.73-.91ZM651.35,246.6v-4.94c0-3.79-.86-6.64-2.58-8.55-1.72-1.91-4.29-2.87-7.7-2.87-6.86,0-10.28,3.81-10.28,11.42v4.94h20.57Z"/>
        <path class="cls-5" d="M667.71,264.27c-.68-.61-1.02-1.44-1.02-2.5v-34.09c0-1.06.34-1.89,1.02-2.5.68-.61,1.59-.91,2.73-.91s2.01.3,2.73.91c.72.61,1.08,1.44,1.08,2.5v34.09c0,1.06-.36,1.9-1.08,2.5-.72.61-1.63.91-2.73.91s-2.05-.3-2.73-.91Z"/>
        <path class="cls-5" d="M683.05,264.27c-.68-.61-1.02-1.44-1.02-2.5v-21.42c0-5.04,1.57-8.98,4.72-11.82,3.14-2.84,7.5-4.26,13.07-4.26s9.92,1.42,13.07,4.26c3.14,2.84,4.72,6.78,4.72,11.82v21.42c0,1.06-.34,1.9-1.02,2.5-.68.61-1.59.91-2.73.91s-2.06-.31-2.76-.94c-.7-.62-1.05-1.45-1.05-2.47v-21.59c0-3.22-.87-5.68-2.61-7.39-1.74-1.7-4.28-2.56-7.61-2.56s-5.87.85-7.61,2.56c-1.74,1.7-2.61,4.17-2.61,7.39v21.59c0,1.02-.35,1.85-1.05,2.47-.7.62-1.62.94-2.76.94s-2.05-.3-2.73-.91Z"/>
        <path class="cls-5" d="M724.7,264.27c-.68-.61-1.02-1.44-1.02-2.5v-23.41c0-4.39,1.25-7.84,3.75-10.34,2.5-2.5,5.95-3.75,10.34-3.75,2.12,0,4.12.52,5.99,1.56,1.88,1.04,3.49,2.53,4.86,4.46,1.33-1.97,2.93-3.47,4.8-4.49,1.88-1.02,3.91-1.53,6.11-1.53,4.39,0,7.84,1.25,10.34,3.75s3.75,5.95,3.75,10.34v23.41c0,1.02-.35,1.85-1.05,2.47-.7.62-1.62.94-2.76.94s-2.05-.3-2.73-.91c-.68-.61-1.02-1.44-1.02-2.5v-23.41c0-2.88-.53-4.95-1.59-6.22-1.06-1.27-2.8-1.9-5.23-1.9-2.2,0-3.89.7-5.09,2.1-1.19,1.4-1.79,3.41-1.79,6.02v23.41c0,1.06-.34,1.9-1.02,2.5-.68.61-1.59.91-2.73.91s-2.04-.3-2.7-.91c-.66-.61-.99-1.44-.99-2.5v-23.41c0-2.54-.61-4.53-1.82-5.97-1.21-1.44-2.9-2.16-5.06-2.16-2.42,0-4.17.63-5.23,1.9-1.06,1.27-1.59,3.34-1.59,6.22v23.41c0,1.02-.35,1.85-1.05,2.47-.7.62-1.62.94-2.76.94s-2.05-.3-2.73-.91Z"/>
        <path class="cls-5" d="M782.38,262.34c-1.59-1.51-2.39-3.64-2.39-6.36v-22.73c0-2.65.77-4.72,2.3-6.19s3.67-2.22,6.39-2.22h17.67c1.14,0,2.01.26,2.61.77.61.51.91,1.24.91,2.19s-.31,1.62-.94,2.13c-.62.51-1.49.77-2.59.77h-16.36c-.76,0-1.35.25-1.79.74-.44.49-.65,1.17-.65,2.05v7.9h14.49c1.14,0,2.01.26,2.61.77.61.51.91,1.24.91,2.19s-.31,1.62-.94,2.13c-.63.51-1.49.77-2.59.77h-14.49v8.75c0,.87.22,1.55.65,2.05.44.49,1.03.74,1.79.74h17.61c1.14,0,2.01.26,2.61.77.61.51.91,1.24.91,2.19s-.31,1.62-.94,2.13-1.49.77-2.59.77h-18.52c-2.88,0-5.11-.76-6.71-2.27Z"/>
        <path class="cls-5" d="M817.66,264.27c-.68-.61-1.02-1.44-1.02-2.5v-21.42c0-5.04,1.57-8.98,4.72-11.82,3.14-2.84,7.5-4.26,13.07-4.26s9.92,1.42,13.07,4.26c3.14,2.84,4.72,6.78,4.72,11.82v21.42c0,1.06-.34,1.9-1.02,2.5-.68.61-1.59.91-2.73.91s-2.06-.31-2.76-.94c-.7-.62-1.05-1.45-1.05-2.47v-21.59c0-3.22-.87-5.68-2.61-7.39-1.74-1.7-4.28-2.56-7.61-2.56s-5.87.85-7.61,2.56c-1.74,1.7-2.61,4.17-2.61,7.39v21.59c0,1.02-.35,1.85-1.05,2.47-.7.62-1.62.94-2.76.94s-2.05-.3-2.73-.91Z"/>
        <path class="cls-5" d="M869.54,264.27c-.68-.61-1.02-1.44-1.02-2.5v-31.08h-10.97c-1.1,0-1.96-.26-2.59-.77-.62-.51-.94-1.22-.94-2.13s.3-1.68.91-2.19c.61-.51,1.48-.77,2.61-.77h29.49c1.14,0,2.01.26,2.61.77.61.51.91,1.24.91,2.19s-.31,1.62-.94,2.13c-.62.51-1.49.77-2.59.77h-10.97v31.08c0,1.02-.35,1.85-1.05,2.47-.7.62-1.62.94-2.76.94s-2.05-.3-2.73-.91Z"/>
      </g>
    </g>
  </g>
  <path class="cls-7" d="M920.97,225.03c.42-1.88-.78-3.75-2.66-4.17h0c-.25-.06-.51-.09-.77-.09-.66,0-1.31.19-1.87.55-.79.5-1.33,1.28-1.54,2.19-.05.21-4.85,21.45-16.56,39.79-.5.79-.67,1.72-.47,2.64.2.91.75,1.69,1.53,2.2.56.36,1.21.55,1.88.55,1.2,0,2.31-.6,2.95-1.62,12.41-19.44,17.3-41.13,17.5-42.04Z"/>
  <path class="cls-7" d="M427.68,264.43c-.42,1.88.78,3.75,2.66,4.17,1.86.41,3.77-.82,4.17-2.66.05-.21,4.85-21.45,16.56-39.79.5-.79.67-1.72.47-2.64-.2-.91-.75-1.69-1.53-2.2-.56-.36-1.21-.55-1.88-.55-1.21,0-2.31.6-2.96,1.62-12.41,19.44-17.3,41.13-17.5,42.04Z"/>
</svg>